name ./resultDataOpenSim/trcMotMarkerGrf/sub10/grf-13-05.mot
datacolumns 19
datarows 10
range 1.47200000 1.50800000
endheader

                time	     ground_force_vx	     ground_force_vy	     ground_force_vz	     ground_force_px	     ground_force_py	     ground_force_pz	   l_ground_force_vx	   l_ground_force_vy	   l_ground_force_vz	   l_ground_force_px	   l_ground_force_py	   l_ground_force_pz	     ground_torque_x	     ground_torque_y	     ground_torque_z	   l_ground_torque_x	   l_ground_torque_y	   l_ground_torque_z	
          1.47200000	         -0.40706428	        395.56870229	        -15.58537524	          0.88213738	          0.00000000	          0.01296418	          0.00000000	          0.00000000	          0.00000000	          0.00000000	          0.00000000	          0.00000000	          0.00000000	          2.49228852	          0.00000000	          0.00000000	          0.00000000	          0.00000000	
          1.47600000	          1.72186535	        396.53234955	        -15.93396401	          0.88164067	          0.00000000	          0.01306152	          0.00000000	          0.00000000	          0.00000000	          0.00000000	          0.00000000	          0.00000000	          0.00000000	          2.57479561	          0.00000000	          0.00000000	          0.00000000	          0.00000000	
          1.48000000	          3.27810412	        398.01122679	        -16.60322071	          0.88125221	          0.00000000	          0.01317193	          0.00000000	          0.00000000	          0.00000000	          0.00000000	          0.00000000	          0.00000000	          0.00000000	          2.67091945	          0.00000000	          0.00000000	          0.00000000	          0.00000000	
          1.48400000	          4.50872648	        400.01037189	        -17.56423289	          0.88095199	          0.00000000	          0.01329947	          0.00000000	          0.00000000	          0.00000000	          0.00000000	          0.00000000	          0.00000000	          0.00000000	          2.78189713	          0.00000000	          0.00000000	          0.00000000	          0.00000000	
          1.48800000	          5.75960194	        402.48962230	        -18.74928696	          0.88066554	          0.00000000	          0.01344483	          0.00000000	          0.00000000	          0.00000000	          0.00000000	          0.00000000	          0.00000000	          0.00000000	          2.90646316	          0.00000000	          0.00000000	          0.00000000	          0.00000000	
          1.49200000	          7.39025851	        405.39355951	        -20.07356370	          0.88031106	          0.00000000	          0.01360645	          0.00000000	          0.00000000	          0.00000000	          0.00000000	          0.00000000	          0.00000000	          0.00000000	          3.04089080	          0.00000000	          0.00000000	          0.00000000	          0.00000000	
          1.49600000	          9.67412463	        408.70387360	        -21.45315549	          0.87984752	          0.00000000	          0.01378626	          0.00000000	          0.00000000	          0.00000000	          0.00000000	          0.00000000	          0.00000000	          0.00000000	          3.18056150	          0.00000000	          0.00000000	          0.00000000	          0.00000000	
          1.50000000	         12.72073449	        412.46510274	        -22.81875934	          0.87925587	          0.00000000	          0.01398632	          0.00000000	          0.00000000	          0.00000000	          0.00000000	          0.00000000	          0.00000000	          0.00000000	          3.32210265	          0.00000000	          0.00000000	          0.00000000	          0.00000000	
          1.50400000	         16.45507986	        416.76214179	        -24.12405262	          0.87856399	          0.00000000	          0.01420887	          0.00000000	          0.00000000	          0.00000000	          0.00000000	          0.00000000	          0.00000000	          0.00000000	          3.46469537	          0.00000000	          0.00000000	          0.00000000	          0.00000000	
          1.50800000	         20.64920580	        421.68318855	        -25.35203632	          0.87782275	          0.00000000	          0.01443976	          0.00000000	          0.00000000	          0.00000000	          0.00000000	          0.00000000	          0.00000000	          0.00000000	          3.60978166	          0.00000000	          0.00000000	          0.00000000	          0.00000000	
